<svg xmlns="http://www.w3.org/2000/svg" width="1200" height="620" viewBox="0 0 1200 620"><rect width="1200" height="620" fill="#0d1117"/><style>text{font-family:Arial,sans-serif;fill:#fff}.title{font-size:28px;font-weight:700}.label{font-size:18px;font-weight:700}.small{font-size:14px;fill:#c9d1d9}.box{fill:#161b22;stroke:#58a6ff;stroke-width:2}.arrow{stroke:#8b949e;stroke-width:3;marker-end:url(#a)}</style><defs><marker id="a" markerWidth="10" markerHeight="10" refX="9" refY="3" orient="auto"><path d="M0,0 L10,3 L0,6 z" fill="#8b949e"/></marker></defs><text x="600" y="45" text-anchor="middle" class="title">Splunk Threat Detection Lab Architecture</text><rect x="80" y="90" width="250" height="120" rx="12" class="box"/><text x="205" y="130" text-anchor="middle" class="label">Kali Linux</text><text x="205" y="158" text-anchor="middle" class="small">Reconnaissance / attack simulation</text><text x="205" y="181" text-anchor="middle" class="small">Nmap • PowerShell • brute force</text><rect x="475" y="90" width="250" height="120" rx="12" class="box"/><text x="600" y="130" text-anchor="middle" class="label">Windows 11 Endpoint</text><text x="600" y="158" text-anchor="middle" class="small">Sysmon telemetry</text><text x="600" y="181" text-anchor="middle" class="small">Process / network / authentication logs</text><rect x="870" y="90" width="250" height="120" rx="12" class="box"/><text x="995" y="130" text-anchor="middle" class="label">Splunk Universal Forwarder</text><text x="995" y="158" text-anchor="middle" class="small">Windows event collection</text><text x="995" y="181" text-anchor="middle" class="small">Forward to Splunk Enterprise</text><line x1="330" y1="150" x2="475" y2="150" class="arrow"/><line x1="725" y1="150" x2="870" y2="150" class="arrow"/><rect x="390" y="310" width="420" height="130" rx="12" class="box"/><text x="600" y="350" text-anchor="middle" class="label">Splunk Enterprise</text><text x="600" y="378" text-anchor="middle" class="small">SPL searches • detection rules • alerts</text><text x="600" y="402" text-anchor="middle" class="small">Windows + Sysmon + firewall telemetry</text><line x1="995" y1="210" x2="995" y2="275" class="arrow"/><line x1="995" y1="275" x2="810" y2="350" class="arrow"/><rect x="90" y="500" width="250" height="80" rx="12" class="box"/><text x="215" y="535" text-anchor="middle" class="label">Detections</text><text x="215" y="560" text-anchor="middle" class="small">5 detection rules</text><rect x="475" y="500" width="250" height="80" rx="12" class="box"/><text x="600" y="535" text-anchor="middle" class="label">Alerts</text><text x="600" y="560" text-anchor="middle" class="small">Enabled correlation alerts</text><rect x="860" y="500" width="250" height="80" rx="12" class="box"/><text x="985" y="535" text-anchor="middle" class="label">Dashboards</text><text x="985" y="560" text-anchor="middle" class="small">SOC • Endpoint • Auth/Network</text><line x1="520" y1="440" x2="300" y2="500" class="arrow"/><line x1="600" y1="440" x2="600" y2="500" class="arrow"/><line x1="680" y1="440" x2="900" y2="500" class="arrow"/></svg>